<?xml version="1.0" standalone="no"?>
<!DOCTYPE svg PUBLIC "-//W3C//DTD SVG 20010904//EN"
 "http://www.w3.org/TR/2001/REC-SVG-20010904/DTD/svg10.dtd">
<svg version="1.0" xmlns="http://www.w3.org/2000/svg"
 width="1280.000000pt" height="640.000000pt" viewBox="0 0 1280.000000 640.000000"
 preserveAspectRatio="xMidYMid meet">
<g transform="translate(0.000000,640.000000) scale(0.100000,-0.100000)"
fill="#b0c4c4" stroke="none">
<path d="M3325 5716 c-33 -8 -199 -39 -370 -71 -170 -32 -313 -61 -317 -64 -5
-4 49 -54 120 -112 722 -596 1530 -1265 1542 -1276 32 -29 -11 -33 -330 -29
-173 2 -324 4 -335 3 -11 0 -98 1 -193 1 l-173 2 -467 279 c-257 153 -478 284
-492 292 -14 7 -47 12 -77 10 l-53 -2 -161 123 c-162 124 -307 233 -497 372
l-102 76 -336 0 c-185 0 -334 -3 -332 -7 2 -5 24 -48 50 -98 26 -49 175 -342
331 -650 280 -551 285 -560 320 -570 19 -5 38 -13 41 -16 4 -3 -7 -23 -24 -44
-16 -21 -30 -46 -30 -56 0 -10 -5 -21 -10 -24 -6 -4 -67 36 -137 87 -69 51
-193 141 -276 201 l-149 107 -345 0 c-279 0 -344 -2 -341 -13 6 -24 690 -1222
705 -1233 8 -7 33 -15 57 -18 76 -12 79 -18 49 -116 -32 -109 -42 -306 -20
-419 l14 -73 -72 -87 c-40 -47 -203 -237 -363 -421 -247 -285 -289 -337 -279
-351 7 -9 31 -44 55 -77 23 -34 59 -74 79 -89 32 -25 46 -28 122 -31 54 -2
111 2 152 12 36 8 441 170 899 360 458 191 841 346 849 346 12 -1 11 -5 -6
-19 -12 -10 -400 -251 -861 -535 -837 -515 -839 -516 -840 -550 -1 -27 3 -35
21 -39 12 -3 83 -21 157 -40 188 -49 293 -60 433 -46 64 6 140 21 178 34 36
13 160 51 275 85 652 192 1317 418 2176 742 191 72 354 128 363 124 11 -4 15
-22 15 -74 0 -38 3 -71 6 -75 4 -3 56 32 117 78 l110 85 373 0 c418 0 389 6
354 -75 -33 -76 -34 -75 90 -75 l110 0 67 86 67 86 326 -7 c223 -5 361 -4 439
4 135 14 216 30 204 41 -4 4 -57 17 -118 30 -324 66 -324 69 -6 120 199 32
294 55 406 97 69 26 165 70 165 77 0 2 -40 20 -90 42 -60 25 -90 43 -90 54 0
9 40 52 88 96 65 59 123 99 218 151 l129 70 110 -14 c132 -17 372 -12 520 11
130 21 313 65 321 78 3 5 -6 32 -20 59 -15 27 -25 53 -22 58 3 4 45 0 93 -11
49 -10 140 -21 203 -24 147 -8 220 8 371 76 63 29 148 63 189 77 l75 25 275
-11 c1085 -44 2102 70 2763 310 104 37 106 32 -37 114 -283 161 -591 292 -836
355 -112 28 -455 98 -619 125 -121 20 -152 29 -190 55 -88 58 -227 119 -341
150 -63 17 -178 49 -255 70 -370 105 -445 112 -1170 109 l-600 -3 -295 62
c-162 34 -423 95 -580 136 l-285 74 -201 -5 -200 -6 -1560 623 c-857 343
-1575 625 -1594 626 -19 2 -62 -3 -95 -10z"/>
</g>
</svg>
